# xmcd
#
# Track frame offsets:
#	150
#	15635
#	30070
#	42748
#	60215
#	74326
#	85484
#	97556
#	109369
#	124707
#	140475
#	152894
#
# Disc length: 2346 seconds
#
# Revision: 2
# Processed by: cddbd v1.4PL0 Copyright (c) Steve Scherf et al.
# Submitted via: CDmax 1.9
#
DISCID=9409280c
DTITLE=Willie Nelson and Don Cherry - The Eyes of Texas
DYEAR=1900
DGENRE=Country
TTITLE0=Beautiful Texas/Waltz Across Texas
TTITLE1=Cool Water
TTITLE2=Houston
TTITLE3=Between the Red and Rio Grande
TTITLE4=Streets of Laredo
TTITLE5=Amarillo by Morning
TTITLE6=The Eyes of Texas/Yellow Rose of Texas
TTITLE7=San Antonio Rose
TTITLE8=Red River Valley
TTITLE9=Texas Ladies' Man
TTITLE10=Tumble Weeds
TTITLE11=Home on the Range
EXTD=
EXTT0=
EXTT1=
EXTT2=
EXTT3=
EXTT4=
EXTT5=
EXTT6=
EXTT7=
EXTT8=
EXTT9=
EXTT10=
EXTT11=
PLAYORDER=
